<?xml version="1.0" encoding="iso-8859-1"?>
<!-- Generator: Adobe Illustrator 19.0.0, SVG Export Plug-In . SVG Version: 6.00 Build 0)  -->
<svg version="1.1" id="Capa_1" xmlns="http://www.w3.org/2000/svg" xmlns:xlink="http://www.w3.org/1999/xlink" x="0px" y="0px"
	 viewBox="0 0 480 480" style="enable-background:new 0 0 480 480;" xml:space="preserve">
<path style="fill:#FF3051;" d="M464,240c0,19.336-18.272,36-23.04,53.856c-4.928,18.456,2.4,42.008-6.944,58.168
	c-9.48,16.392-33.64,21.752-46.936,35.056s-18.672,37.456-35.08,46.936c-16.16,9.352-39.712,2.016-58.168,6.944
	C276,445.728,259.336,464,240,464s-36-18.272-53.856-23.04c-18.456-4.928-42.008,2.4-58.168-6.944
	c-16.392-9.48-21.752-33.64-35.056-46.936S55.464,368.408,45.984,352c-9.352-16.16-2.016-39.712-6.944-58.168
	C34.272,276,16,259.336,16,240s18.272-36,23.04-53.856c4.928-18.456-2.4-42.008,6.944-58.168c9.48-16.392,33.6-21.752,46.936-35.056
	S111.592,55.464,128,45.984c16.16-9.352,39.712-2.016,58.168-6.944C204,34.272,220.664,16,240,16s36,18.272,53.856,23.04
	c18.456,4.928,42.008-2.4,58.168,6.944c16.392,9.48,21.752,33.6,35.056,46.936s37.456,18.672,46.936,35.08
	c9.352,16.16,2.016,39.712,6.944,58.168C445.728,204,464,220.664,464,240z"/>
<g>
	<path style="fill:#231F20;" d="M240,480c-14.08,0-24.512-11.52-34.6-22.672c-5.059-6.876-11.649-12.48-19.248-16.368
		c-8.88-0.535-17.762,1.036-25.92,4.584c-14.048,4.48-28.536,9.112-40.272,2.32c-11.912-6.888-15.152-21.912-18.288-36.44
		c-0.965-8.689-3.963-17.029-8.752-24.344c-7.319-4.794-15.664-7.795-24.36-8.76c-14.52-3.136-29.536-6.4-36.424-18.28
		c-6.792-11.744-2.16-26.24,2.32-40.272c3.55-8.155,5.121-17.034,4.584-25.912c-3.886-7.603-9.49-14.196-16.368-19.256
		C11.52,264.512,0,254.08,0,240s11.52-24.512,22.672-34.6c6.876-5.059,12.48-11.649,16.368-19.248
		c0.539-8.881-1.032-17.763-4.584-25.92c-4.48-14.032-9.112-28.536-2.32-40.272c6.888-11.912,21.912-15.152,36.44-18.288
		c8.689-0.965,17.029-3.963,24.344-8.752c4.808-7.315,7.823-15.661,8.8-24.36c3.136-14.52,6.4-29.536,18.28-36.424
		c11.76-6.8,26.248-2.152,40.272,2.32c8.157,3.545,17.034,5.115,25.912,4.584c7.603-3.886,14.196-9.49,19.256-16.368
		C215.488,11.52,225.92,0,240,0c14.08,0,24.512,11.52,34.6,22.672c5.059,6.876,11.649,12.48,19.248,16.368
		c8.88,0.534,17.761-1.037,25.92-4.584c14.048-4.48,28.536-9.112,40.272-2.32c11.912,6.888,15.152,21.912,18.288,36.44
		c0.965,8.689,3.963,17.029,8.752,24.344c7.315,4.808,15.661,7.823,24.36,8.8c14.52,3.136,29.536,6.4,36.424,18.28
		c6.792,11.744,2.16,26.24-2.32,40.272c-3.55,8.155-5.121,17.034-4.584,25.912c3.886,7.603,9.49,14.196,16.368,19.256
		C468.48,215.488,480,225.92,480,240c0,14.08-11.52,24.512-22.672,34.6c-6.876,5.059-12.48,11.649-16.368,19.248
		c-0.539,8.881,1.032,17.763,4.584,25.92c4.48,14.032,9.112,28.536,2.32,40.272c-6.888,11.912-21.912,15.152-36.44,18.288
		c-8.689,0.965-17.029,3.963-24.344,8.752c-4.794,7.319-7.795,15.664-8.76,24.36c-3.136,14.52-6.4,29.536-18.28,36.424
		c-11.752,6.8-26.256,2.16-40.272-2.32c-8.157-3.544-17.034-5.114-25.912-4.584c-7.603,3.886-14.196,9.49-19.256,16.368
		C264.512,468.48,254.08,480,240,480z M182.168,424.496c2.736-0.017,5.463,0.322,8.112,1.008
		c10.761,4.413,20.096,11.71,26.976,21.088C225.008,455.152,233.016,464,240,464s14.992-8.848,22.744-17.408
		c6.88-9.381,16.218-16.679,26.984-21.088c11.855-1.635,23.931,0.026,34.904,4.8c10.704,3.416,21.776,6.952,27.4,3.712
		c5.768-3.336,8.248-14.84,10.648-25.952c1.302-11.766,5.832-22.943,13.088-32.296c7.776-7.792,20.232-10.48,32.28-13.08
		c11.12-2.4,22.624-4.88,25.976-10.664c3.2-5.6-0.296-16.68-3.72-27.392c-4.784-10.973-6.445-23.055-4.8-34.912
		c4.413-10.761,11.71-20.096,21.088-26.976C455.152,254.992,464,246.984,464,240s-8.848-14.992-17.408-22.744
		c-9.381-6.88-16.679-16.218-21.088-26.984c-1.644-11.855,0.017-23.933,4.8-34.904c3.424-10.712,6.952-21.792,3.712-27.4
		c-3.336-5.768-14.84-8.248-25.952-10.648c-11.766-1.302-22.943-5.832-32.296-13.088c-7.792-7.776-10.48-20.232-13.08-32.28
		c-2.4-11.12-4.88-22.624-10.664-25.976c-5.6-3.2-16.664,0.296-27.392,3.72c-10.975,4.779-23.055,6.44-34.912,4.8
		c-10.761-4.413-20.096-11.71-26.976-21.088C254.992,24.848,246.984,16,240,16s-14.992,8.848-22.744,17.408
		c-6.88,9.381-16.218,16.679-26.984,21.088c-10.776,2.896-23.056-1.008-34.904-4.8C144.656,46.272,133.6,42.72,128,45.984
		c-5.768,3.336-8.248,14.84-10.648,25.952c-1.302,11.766-5.832,22.943-13.088,32.296c-7.776,7.792-20.232,10.48-32.28,13.08
		c-11.12,2.4-22.624,4.88-25.976,10.664c-3.2,5.6,0.296,16.68,3.72,27.392c4.784,10.973,6.445,23.055,4.8,34.912
		c-4.413,10.761-11.71,20.096-21.088,26.976C24.848,225.008,16,233.016,16,240c0,6.984,8.848,14.992,17.408,22.744
		c9.381,6.88,16.679,16.218,21.088,26.984c1.644,11.855-0.017,23.933-4.8,34.904C46.272,335.344,42.744,346.4,45.984,352
		c3.336,5.768,14.84,8.248,25.952,10.648c11.766,1.302,22.943,5.832,32.296,13.088c7.792,7.776,10.48,20.232,13.08,32.28
		c2.4,11.12,4.88,22.624,10.664,25.976c5.6,3.2,16.664-0.296,27.392-3.72C163.964,427.024,172.997,425.077,182.168,424.496
		L182.168,424.496z"/>
	<path style="fill:#231F20;" d="M240,96c-4.418,0-8-3.582-8-8V72c0-4.418,3.582-8,8-8s8,3.582,8,8v16C248,92.418,244.418,96,240,96z
		"/>
	<path style="fill:#231F20;" d="M200.648,101.176c-3.618-0.003-6.783-2.434-7.72-5.928L188.8,79.8
		c-1.26-4.235,1.152-8.689,5.387-9.949c4.235-1.26,8.689,1.152,9.949,5.387c0.041,0.138,0.078,0.277,0.112,0.417l4.144,15.456
		c1.14,4.266-1.392,8.648-5.656,9.792C202.056,101.089,201.353,101.18,200.648,101.176L200.648,101.176z"/>
	<path style="fill:#231F20;" d="M164,116.368c-2.861,0.003-5.506-1.522-6.936-4l-8-13.864c-2.234-3.812-0.956-8.713,2.856-10.947
		c3.812-2.234,8.713-0.956,10.947,2.856c0.018,0.03,0.035,0.061,0.053,0.092l8,13.864c2.209,3.826,0.898,8.719-2.928,10.928
		C166.778,115.997,165.402,116.367,164,116.368z"/>
	<path style="fill:#231F20;" d="M132.52,140.52c-2.122,0-4.156-0.844-5.656-2.344l-11.32-11.32
		c-3.178-3.069-3.266-8.134-0.197-11.312c3.069-3.178,8.134-3.266,11.312-0.197c0.067,0.064,0.132,0.13,0.197,0.197l11.32,11.32
		c3.124,3.125,3.123,8.19-0.002,11.314C136.675,139.677,134.641,140.52,132.52,140.52L132.52,140.52z"/>
	<path style="fill:#231F20;" d="M108.36,172c-1.405,0.003-2.785-0.367-4-1.072l-13.864-8c-3.841-2.184-5.184-7.068-3-10.909
		s7.068-5.184,10.909-3c0.031,0.017,0.061,0.035,0.092,0.053l13.864,8c3.826,2.209,5.137,7.102,2.928,10.928
		C113.859,170.475,111.218,172,108.36,172L108.36,172z"/>
	<path style="fill:#231F20;" d="M93.184,208.656c-0.7,0-1.396-0.092-2.072-0.272l-15.456-4.144
		c-4.297-1.029-6.946-5.347-5.917-9.643c1.029-4.297,5.347-6.946,9.643-5.917c0.14,0.034,0.279,0.071,0.417,0.112l15.448,4.136
		c4.268,1.142,6.802,5.528,5.66,9.796C99.972,206.221,96.804,208.654,93.184,208.656z"/>
	<path style="fill:#231F20;" d="M386.816,208.656c-4.418-0.002-7.998-3.586-7.996-8.004c0.002-3.62,2.435-6.788,5.932-7.724
		l15.448-4.136c4.235-1.26,8.689,1.153,9.949,5.387c1.26,4.235-1.153,8.689-5.387,9.949c-0.138,0.041-0.277,0.078-0.417,0.112
		l-15.456,4.144C388.212,208.564,387.516,208.655,386.816,208.656L386.816,208.656z"/>
	<path style="fill:#231F20;" d="M371.64,172c-4.418,0-8-3.582-8-8c0-2.858,1.525-5.499,4-6.928l13.864-8
		c3.841-2.184,8.725-0.841,10.909,3c2.163,3.805,0.867,8.642-2.909,10.856l-13.864,8C374.425,171.633,373.045,172.003,371.64,172
		L371.64,172z"/>
	<path style="fill:#231F20;" d="M347.48,140.52c-4.418-0.001-7.999-3.583-7.998-8.002c0-2.121,0.843-4.155,2.342-5.654l11.32-11.32
		c3.069-3.178,8.134-3.266,11.312-0.196c3.178,3.069,3.266,8.134,0.196,11.312c-0.064,0.067-0.13,0.132-0.196,0.196l-11.32,11.32
		C351.636,139.676,349.602,140.52,347.48,140.52L347.48,140.52z"/>
	<path style="fill:#231F20;" d="M316,116.368c-4.418-0.005-7.996-3.59-7.992-8.008c0.001-1.402,0.371-2.778,1.072-3.992l8-13.864
		c2.183-3.841,7.067-5.185,10.908-3.002c3.841,2.183,5.185,7.067,3.002,10.908c-0.018,0.031-0.036,0.062-0.054,0.093l-8,13.864
		C321.506,114.846,318.861,116.371,316,116.368L316,116.368z"/>
	<path style="fill:#231F20;" d="M279.352,101.176c-0.702,0.004-1.402-0.088-2.08-0.272c-4.264-1.144-6.796-5.526-5.656-9.792
		l4.144-15.456c1.029-4.297,5.347-6.946,9.643-5.917c4.297,1.029,6.946,5.347,5.917,9.643c-0.034,0.14-0.071,0.279-0.112,0.417
		l-4.136,15.448C286.135,98.742,282.97,101.173,279.352,101.176L279.352,101.176z"/>
	<path style="fill:#231F20;" d="M240,416c-4.418,0-8-3.582-8-8v-16c0-4.418,3.582-8,8-8s8,3.582,8,8v16
		C248,412.418,244.418,416,240,416z"/>
	<path style="fill:#231F20;" d="M196.52,410.272c-4.418,0.001-8-3.581-8.001-7.999c0-0.7,0.092-1.397,0.273-2.073l4.136-15.448
		c1.163-4.263,5.561-6.776,9.823-5.613c4.234,1.155,6.747,5.504,5.633,9.749l-4.144,15.456
		C203.303,407.838,200.138,410.269,196.52,410.272z"/>
	<path style="fill:#231F20;" d="M283.48,410.272c-3.618-0.003-6.783-2.434-7.72-5.928l-4.144-15.456
		c-1.122-4.274,1.433-8.647,5.707-9.769c4.245-1.114,8.594,1.399,9.749,5.633l4.136,15.448c1.144,4.268-1.388,8.655-5.655,9.799
		C284.877,410.18,284.18,410.272,283.48,410.272L283.48,410.272z"/>
	<path style="fill:#231F20;" d="M272,216c0-4.418-3.582-8-8-8h-16v-88c-0.001-4.418-3.583-7.999-8.002-7.998
		c-2.121,0-4.155,0.843-5.654,2.342l-24,24c-3.069,3.178-2.981,8.243,0.197,11.312c3.1,2.994,8.015,2.994,11.115,0L232,139.312V208
		h-16c-4.418,0-8,3.582-8,8s3.582,8,8,8h48C268.418,224,272,220.418,272,216z"/>
	<path style="fill:#231F20;" d="M152,248h-48c-4.418,0-8,3.582-8,8v96c0,4.418,3.582,8,8,8c4.418,0,8-3.582,8-8v-40h32
		c4.418,0,8-3.582,8-8s-3.582-8-8-8h-32v-32h40c4.418,0,8-3.582,8-8C160,251.582,156.418,248,152,248z"/>
	<path style="fill:#231F20;" d="M197.6,312H208c13.255,0,24-10.745,24-24v-16c0-13.255-10.745-24-24-24h-32c-4.418,0-8,3.582-8,8v96
		c0,4.418,3.582,8,8,8s8-3.582,8-8v-30.608l42.8,36.68c3.462,2.745,8.494,2.165,11.239-1.297c2.6-3.279,2.235-8.007-0.839-10.847
		L197.6,312z M184,264h24c4.418,0,8,3.582,8,8v16c0,4.418-3.582,8-8,8h-24V264z"/>
	<path style="fill:#231F20;" d="M304,264c4.418,0,8-3.582,8-8c0-4.418-3.582-8-8-8h-48c-4.418,0-8,3.582-8,8v96c0,4.418,3.582,8,8,8
		h48c4.418,0,8-3.582,8-8s-3.582-8-8-8h-40v-32h32c4.418,0,8-3.582,8-8s-3.582-8-8-8h-32v-32H304z"/>
	<path style="fill:#231F20;" d="M376,344h-40v-32h32c4.418,0,8-3.582,8-8s-3.582-8-8-8h-32v-32h40c4.418,0,8-3.582,8-8
		c0-4.418-3.582-8-8-8h-48c-4.418,0-8,3.582-8,8v96c0,4.418,3.582,8,8,8h48c4.418,0,8-3.582,8-8S380.418,344,376,344z"/>
</g>
<g>
</g>
<g>
</g>
<g>
</g>
<g>
</g>
<g>
</g>
<g>
</g>
<g>
</g>
<g>
</g>
<g>
</g>
<g>
</g>
<g>
</g>
<g>
</g>
<g>
</g>
<g>
</g>
<g>
</g>
</svg>
